SplineFontDB: 3.2
FontName: SingScript.sg_components
FullName: SingScript.sg "components" module
FamilyName: SingScript.sg
Weight: Regular
Copyright: Copyright (c) 2025, 05524F.sg (Singapore)
Version: v2
ItalicAngle: 0
UnderlinePosition: -100
UnderlineWidth: 67
Ascent: 600
Descent: 300
InvalidEm: 0
sfntRevision: 0x00010000
LayerCount: 2
Layer: 0 0 "Back" 1
Layer: 1 0 "Fore" 0
XUID: [1021 768 647112374 32286]
StyleMap: 0x0040
FSType: 0
OS2Version: 4
OS2_WeightWidthSlopeOnly: 0
OS2_UseTypoMetrics: 1
CreationTime: 1740441635
ModificationTime: 1753325379
PfmFamily: 65
TTFWeight: 400
TTFWidth: 5
LineGap: 81
VLineGap: 0
Panose: 3 0 5 3 0 0 0 0 0 0
OS2TypoAscent: 600
OS2TypoAOffset: 0
OS2TypoDescent: -300
OS2TypoDOffset: 0
OS2TypoLinegap: 81
OS2WinAscent: 590
OS2WinAOffset: 0
OS2WinDescent: 233
OS2WinDOffset: 0
HheadAscent: 590
HheadAOffset: 0
HheadDescent: -233
HheadDOffset: 0
OS2SubXSize: 585
OS2SubYSize: 630
OS2SubXOff: 0
OS2SubYOff: 126
OS2SupXSize: 585
OS2SupYSize: 630
OS2SupXOff: 0
OS2SupYOff: 432
OS2StrikeYSize: 44
OS2StrikeYPos: 232
OS2CapHeight: 467
OS2XHeight: 300
OS2Vendor: '5524'
OS2CodePages: 00000001.00000000
OS2UnicodeRanges: 80000003.10000000.00000000.00000000
MarkAttachClasses: 1
DEI: 91125
LangName: 1033 "" "" "" "" "" "Version v2"
Encoding: Custom
UnicodeInterp: none
NameList: AGL For New Fonts
DisplaySize: -48
AntiAlias: 1
FitToEm: 0
WidthSeparation: 50
WinInfo: 0 27 3
BeginPrivate: 6
BlueValues 21 [0 0 300 300 467 467]
OtherBlues 11 [-233 -233]
StdHW 4 [67]
StdVW 4 [67]
StemSnapH 33 [52 59 63 67 73 78 86 93 159 167]
StemSnapV 4 [67]
EndPrivate
Grid
0 -200 m 24
 351 -200 549 -200 900 -200 c 1048
0 -233 m 24
 351 -233 549 -233 900 -233 c 1048
250 211 m 24
 289 211 311 211 350 211 c 1048
250 100 m 24
 289 100 311 100 350 100 c 1048
250 -100 m 24
 289 -100 311 -100 350 -100 c 1048
250 -255 m 24
 289 -255 311 -255 350 -255 c 1048
100 511 m 24
 139 511 161 511 200 511 c 1048
100 400 m 24
 139 400 161 400 200 400 c 1048
100 200 m 24

StartChar: NameMe.0
Encoding: 0 -1 0
Width: 717
Flags: HW
LayerCount: 2
Fore
SplineSet
58.5 116.5 m 2
 40.0107421875 116.5 25 131.510742188 25 150 c 0
 25 168.489257812 40.0107421875 183.5 58.5 183.5 c 2
 658.5 183.5 l 2
 676.989257812 183.5 692 168.489257812 692 150 c 0
 692 131.510742188 676.989257812 116.5 658.5 116.5 c 2
 58.5 116.5 l 2
EndSplineSet
EndChar

StartChar: NameMe.1
Encoding: 1 -1 1
Width: 117
Flags: HW
LayerCount: 2
Fore
SplineSet
92 -150 m 2
 92 -168.489257812 76.9892578125 -183.5 58.5 -183.5 c 0
 40.0107421875 -183.5 25 -168.489257812 25 -150 c 2
 25 450 l 2
 25 468.489257812 40.0107421875 483.5 58.5 483.5 c 0
 76.9892578125 483.5 92 468.489257812 92 450 c 2
 92 -150 l 2
EndSplineSet
EndChar

StartChar: NameMe.2
Encoding: 2 -1 2
Width: 541
Flags: HW
LayerCount: 2
Fore
SplineSet
82.1806640625 -85.8203125 m 2
 69.107421875 -98.8935546875 47.87890625 -98.8935546875 34.8046875 -85.8203125 c 0
 21.7314453125 -72.74609375 21.7314453125 -51.517578125 34.8046875 -38.4443359375 c 2
 459.069335938 385.8203125 l 2
 472.142578125 398.893554688 493.37109375 398.893554688 506.4453125 385.8203125 c 0
 519.518554688 372.74609375 519.518554688 351.517578125 506.4453125 338.444335938 c 2
 82.1806640625 -85.8203125 l 2
EndSplineSet
EndChar

StartChar: NameMe.3
Encoding: 3 -1 3
Width: 541
Flags: HW
LayerCount: 2
Fore
SplineSet
34.8046875 338.444335938 m 2
 21.7314453125 351.517578125 21.7314453125 372.74609375 34.8046875 385.8203125 c 0
 47.87890625 398.893554688 69.107421875 398.893554688 82.1806640625 385.8203125 c 2
 506.4453125 -38.4443359375 l 2
 519.518554688 -51.517578125 519.518554688 -72.74609375 506.4453125 -85.8203125 c 0
 493.37109375 -98.8935546875 472.142578125 -98.8935546875 459.069335938 -85.8203125 c 2
 34.8046875 338.444335938 l 2
EndSplineSet
EndChar

StartChar: NameMe.4
Encoding: 4 -1 4
Width: 276
Flags: HW
LayerCount: 2
Fore
SplineSet
217.536132812 305.528320312 m 4
 236.022460938 305.528320312 251.03125 290.51953125 251.03125 272.033203125 c 4
 251.03125 261.204101562 245.881835938 251.568359375 237.8515625 245.407226562 c 4
 113.508789062 150 113.508789062 150 113.508789062 150 c 5
 113.508789062 150 237.8515625 54.5927734375 237.899414062 54.5556640625 c 4
 245.881835938 48.431640625 251.03125 38.7958984375 251.03125 27.966796875 c 4
 251.03125 9.48046875 236.022460938 -5.5283203125 217.536132812 -5.5283203125 c 4
 209.877929688 -5.5283203125 202.8125 -2.9599609375 197.119140625 1.4072265625 c 4
 38.1171875 123.385742188 38.1171875 123.385742188 38.1171875 123.385742188 c 6
 34.5224609375 126.143554688 25 134.875 25 149.965820312 c 4
 25 160.04296875 29.515625 169.991210938 38.119140625 176.592773438 c 6
 197.119140625 298.592773438 l 6
 202.817382812 302.953125 209.877929688 305.528320312 217.536132812 305.528320312 c 4
EndSplineSet
EndChar

StartChar: NameMe.5
Encoding: 5 -1 5
Width: 276
Flags: HW
LayerCount: 2
Fore
SplineSet
58.4951171875 305.528320312 m 4
 66.1533203125 305.528320312 73.2138671875 302.953125 78.912109375 298.592773438 c 6
 237.912109375 176.592773438 l 6
 246.515625 169.991210938 251.03125 160.04296875 251.03125 149.965820312 c 4
 251.03125 134.875 241.508789062 126.143554688 237.9140625 123.385742188 c 6
 237.9140625 123.385742188 237.9140625 123.385742188 78.912109375 1.4072265625 c 4
 73.21875 -2.9599609375 66.1533203125 -5.5283203125 58.4951171875 -5.5283203125 c 4
 40.0087890625 -5.5283203125 25 9.48046875 25 27.966796875 c 4
 25 38.7958984375 30.1494140625 48.431640625 38.1318359375 54.5556640625 c 4
 38.1796875 54.5927734375 162.522460938 150 162.522460938 150 c 5
 162.522460938 150 162.522460938 150 38.1796875 245.407226562 c 4
 30.1494140625 251.568359375 25 261.204101562 25 272.033203125 c 4
 25 290.51953125 40.0087890625 305.528320312 58.4951171875 305.528320312 c 4
EndSplineSet
EndChar

StartChar: NameMe.6
Encoding: 6 -1 6
Width: 361
Flags: HW
LayerCount: 2
Fore
SplineSet
25 207.463867188 m 4
 25 215.122070312 27.5751953125 222.182617188 31.935546875 227.880859375 c 6
 153.935546875 386.880859375 l 6
 160.537109375 395.484375 170.485351562 400 180.5625 400 c 4
 195.653320312 400 204.384765625 390.477539062 207.142578125 386.8828125 c 6
 207.142578125 386.8828125 207.142578125 386.8828125 329.12109375 227.880859375 c 4
 333.48828125 222.1875 336.056640625 215.122070312 336.056640625 207.463867188 c 4
 336.056640625 188.977539062 321.047851562 173.96875 302.561523438 173.96875 c 4
 291.732421875 173.96875 282.096679688 179.118164062 275.97265625 187.100585938 c 4
 275.935546875 187.1484375 180.528320312 311.491210938 180.528320312 311.491210938 c 5
 180.528320312 311.491210938 180.528320312 311.491210938 85.12109375 187.1484375 c 4
 78.9599609375 179.118164062 69.32421875 173.96875 58.4951171875 173.96875 c 4
 40.0087890625 173.96875 25 188.977539062 25 207.463867188 c 4
EndSplineSet
EndChar

StartChar: NameMe.7
Encoding: 7 -1 7
Width: 361
Flags: HW
LayerCount: 2
Fore
SplineSet
25 92.5361328125 m 4
 25 111.022460938 40.0087890625 126.03125 58.4951171875 126.03125 c 4
 69.32421875 126.03125 78.9599609375 120.881835938 85.12109375 112.8515625 c 4
 180.528320312 -11.4912109375 180.528320312 -11.4912109375 180.528320312 -11.4912109375 c 5
 180.528320312 -11.4912109375 275.935546875 112.8515625 275.97265625 112.899414062 c 4
 282.096679688 120.881835938 291.732421875 126.03125 302.561523438 126.03125 c 4
 321.047851562 126.03125 336.056640625 111.022460938 336.056640625 92.5361328125 c 4
 336.056640625 84.8779296875 333.48828125 77.8125 329.12109375 72.119140625 c 4
 207.142578125 -86.8828125 207.142578125 -86.8828125 207.142578125 -86.8828125 c 6
 204.384765625 -90.4775390625 195.653320312 -100 180.5625 -100 c 4
 170.485351562 -100 160.537109375 -95.484375 153.935546875 -86.880859375 c 6
 31.935546875 72.119140625 l 6
 27.5751953125 77.8173828125 25 84.8779296875 25 92.5361328125 c 4
EndSplineSet
EndChar

StartChar: NameMe.8
Encoding: 8 -1 8
Width: 316
Flags: HW
LayerCount: 2
Fore
SplineSet
60.986328125 210.143554688 m 4
 67.5224609375 216.6796875 76.0966796875 219.947265625 84.671875 219.947265625 c 0
 93.24609375 219.947265625 101.8203125 216.6796875 108.356445312 210.143554688 c 4
 114.887695312 203.611328125 118.155273438 195.044921875 118.155273438 186.440429688 c 0
 118.155273438 184.208984375 118.155273438 184.208984375 97.4033203125 26.609375 c 5
 97.4033203125 26.609375 252.790039062 47.0703125 252.850585938 47.078125 c 4
 254.311523438 47.2705078125 255.782226562 47.3662109375 257.252929688 47.3662109375 c 0
 265.826171875 47.3662109375 274.400390625 44.0986328125 280.9375 37.5625 c 4
 287.473632812 31.0263671875 290.741210938 22.4521484375 290.741210938 13.876953125 c 0
 290.741210938 5.302734375 287.473632812 -3.271484375 280.9375 -9.8076171875 c 4
 275.521484375 -15.22265625 268.709960938 -18.40234375 261.595703125 -19.33984375 c 4
 62.9130859375 -45.51953125 62.9130859375 -45.51953125 62.9130859375 -45.51953125 c 6
 61.8935546875 -45.654296875 60.439453125 -45.7861328125 58.6767578125 -45.7861328125 c 0
 52.67578125 -45.7861328125 43.0908203125 -44.248046875 34.8427734375 -36 c 4
 27.716796875 -28.8740234375 23.875 -18.646484375 25.291015625 -7.8955078125 c 6
 51.4541015625 190.801757812 l 6
 52.400390625 197.9140625 55.5712890625 204.727539062 60.986328125 210.143554688 c 4
EndSplineSet
EndChar

StartChar: NameMe.9
Encoding: 9 -1 9
Width: 316
Flags: HW
LayerCount: 2
Fore
SplineSet
34.8037109375 -9.8564453125 m 4
 28.267578125 -3.3203125 25 5.25390625 25 13.828125 c 0
 25 22.4033203125 28.267578125 30.9775390625 34.8037109375 37.513671875 c 4
 41.3359375 44.044921875 49.9013671875 47.3125 58.5068359375 47.3125 c 0
 59.990234375 47.3125 61.4755859375 47.2158203125 62.951171875 47.021484375 c 4
 218.337890625 26.560546875 218.337890625 26.560546875 218.337890625 26.560546875 c 5
 218.337890625 26.560546875 197.876953125 181.947265625 197.869140625 182.0078125 c 4
 196.555664062 191.982421875 199.727539062 202.436523438 207.384765625 210.094726562 c 4
 213.920898438 216.630859375 222.495117188 219.8984375 231.069335938 219.8984375 c 0
 239.643554688 219.8984375 248.21875 216.630859375 254.754882812 210.094726562 c 4
 260.169921875 204.678710938 263.349609375 197.8671875 264.287109375 190.752929688 c 4
 290.466796875 -7.9296875 290.466796875 -7.9296875 290.466796875 -7.9296875 c 6
 291.05859375 -12.421875 291.618164062 -25.3291015625 280.947265625 -36 c 4
 274.806640625 -42.140625 266.362304688 -45.8427734375 257.264648438 -45.8427734375 c 0
 255.8046875 -45.8427734375 254.329101562 -45.7470703125 252.842773438 -45.5517578125 c 6
 54.1455078125 -19.388671875 l 6
 47.033203125 -18.4423828125 40.2197265625 -15.271484375 34.8037109375 -9.8564453125 c 4
EndSplineSet
EndChar

StartChar: NameMe.10
Encoding: 10 -1 10
Width: 316
Flags: HW
LayerCount: 2
Fore
SplineSet
254.754882812 89.8564453125 m 4
 248.21875 83.3203125 239.643554688 80.052734375 231.069335938 80.052734375 c 0
 222.495117188 80.052734375 213.920898438 83.3203125 207.384765625 89.8564453125 c 4
 200.853515625 96.388671875 197.584960938 104.955078125 197.584960938 113.559570312 c 0
 197.584960938 115.791015625 197.584960938 115.791015625 218.337890625 273.390625 c 5
 218.337890625 273.390625 62.951171875 252.9296875 62.890625 252.921875 c 4
 61.4296875 252.729492188 59.958984375 252.633789062 58.48828125 252.633789062 c 0
 49.9140625 252.633789062 41.3408203125 255.901367188 34.8037109375 262.4375 c 4
 28.267578125 268.973632812 25 277.547851562 25 286.123046875 c 0
 25 294.697265625 28.267578125 303.271484375 34.8037109375 309.807617188 c 4
 40.2197265625 315.22265625 47.03125 318.40234375 54.1455078125 319.33984375 c 4
 252.828125 345.51953125 252.828125 345.51953125 252.828125 345.51953125 c 6
 253.84765625 345.654296875 255.301757812 345.786132812 257.063476562 345.786132812 c 0
 263.065429688 345.786132812 272.649414062 344.248046875 280.8984375 336 c 4
 288.024414062 328.874023438 291.866210938 318.646484375 290.450195312 307.895507812 c 6
 264.287109375 109.198242188 l 6
 263.340820312 102.0859375 260.169921875 95.2724609375 254.754882812 89.8564453125 c 4
EndSplineSet
EndChar

StartChar: NameMe.11
Encoding: 11 -1 11
Width: 316
Flags: HW
LayerCount: 2
Fore
SplineSet
280.9296875 309.856445312 m 4
 287.465820312 303.3203125 290.733398438 294.74609375 290.733398438 286.171875 c 0
 290.733398438 277.596679688 287.465820312 269.022460938 280.9296875 262.486328125 c 4
 274.3984375 255.955078125 265.83203125 252.6875 257.2265625 252.6875 c 0
 255.743164062 252.6875 254.258789062 252.784179688 252.782226562 252.978515625 c 4
 97.3955078125 273.439453125 97.3955078125 273.439453125 97.3955078125 273.439453125 c 5
 97.3955078125 273.439453125 117.856445312 118.052734375 117.864257812 117.9921875 c 4
 119.177734375 108.017578125 116.005859375 97.5634765625 108.348632812 89.9052734375 c 4
 101.8125 83.369140625 93.23828125 80.1015625 84.6640625 80.1015625 c 0
 76.08984375 80.1015625 67.5146484375 83.369140625 60.978515625 89.9052734375 c 4
 55.5634765625 95.3212890625 52.3837890625 102.1328125 51.4462890625 109.247070312 c 4
 25.2666015625 307.9296875 25.2666015625 307.9296875 25.2666015625 307.9296875 c 6
 24.6748046875 312.421875 24.115234375 325.329101562 34.7861328125 336 c 4
 40.927734375 342.140625 49.37109375 345.842773438 58.46875 345.842773438 c 0
 59.9287109375 345.842773438 61.4052734375 345.747070312 62.890625 345.551757812 c 6
 261.587890625 319.388671875 l 6
 268.700195312 318.442382812 275.513671875 315.271484375 280.9296875 309.856445312 c 4
EndSplineSet
EndChar

StartChar: NameMe.12
Encoding: 12 -1 12
Width: 267
Flags: HW
LayerCount: 2
Fore
SplineSet
58.5029296875 -33.50390625 m 0
 40.01171875 -33.50390625 25 -18.4921875 25 -0.0009765625 c 0
 25 5.41015625 26.2861328125 10.5244140625 28.568359375 15.05078125 c 0
 29.916015625 17.72265625 177.092773438 312.124023438 178.602539062 315.119140625 c 0
 184.120117188 326.059570312 195.458007812 333.569335938 208.537109375 333.569335938 c 0
 227.028320312 333.569335938 242.040039062 318.557617188 242.040039062 300.067382812 c 0
 242.040039062 294.655273438 240.75390625 289.541015625 238.431640625 284.94921875 c 0
 237.077148438 282.262695312 89.908203125 -12.1240234375 88.3974609375 -15.119140625 c 0
 82.919921875 -25.9931640625 71.58203125 -33.50390625 58.5029296875 -33.50390625 c 0
EndSplineSet
EndChar

StartChar: NameMe.13
Encoding: 13 -1 13
Width: 350
Flags: HW
LayerCount: 2
Fore
SplineSet
58.5 -33.5 m 2
 40.0107421875 -33.5 25 -18.4892578125 25 0 c 0
 25 18.4892578125 40.0107421875 33.5 58.5 33.5 c 2
 291.5 33.5 l 2
 309.989257812 33.5 325 18.4892578125 325 0 c 0
 325 -18.4892578125 309.989257812 -33.5 291.5 -33.5 c 2
 58.5 -33.5 l 2
EndSplineSet
EndChar

StartChar: NameMe.14
Encoding: 14 -1 14
Width: 117
Flags: HW
LayerCount: 2
Fore
SplineSet
92 33.5 m 6
 92 15.0107421875 76.9892578125 0 58.5 0 c 4
 40.0107421875 0 25 15.0107421875 25 33.5 c 6
 25 266.5 l 6
 25 284.989257812 40.0107421875 300 58.5 300 c 4
 76.9892578125 300 92 284.989257812 92 266.5 c 6
 92 33.5 l 6
EndSplineSet
EndChar

StartChar: NameMe.15
Encoding: 15 -1 15
Width: 550
Flags: HW
LayerCount: 2
Fore
SplineSet
25 367 m 2
 25 385.33984375 39.888671875 400.477539062 58.5234375 400.477539062 c 2
 491.5 400.5 l 2
 509.989257812 400.5 525 385.489257812 525 367 c 0
 525 348.510742188 509.989257812 333.5 491.5 333.5 c 2
 92 333.5 l 1
 92 -67 l 2
 92 -85.4892578125 76.9892578125 -100.5 58.5 -100.5 c 0
 40.0107421875 -100.5 25 -85.4892578125 25 -67 c 2
 25 367 l 2
EndSplineSet
EndChar

StartChar: NameMe.16
Encoding: 16 -1 16
Width: 551
Flags: HW
LayerCount: 2
Fore
SplineSet
58.5 -100 m 6
 40.16015625 -100 25.0224609375 -85.111328125 25.0224609375 -66.4765625 c 6
 25 366.5 l 6
 25 384.989257812 40.0107421875 400 58.5 400 c 4
 76.9892578125 400 92 384.989257812 92 366.5 c 6
 92 -33 l 5
 492.5 -33 l 6
 510.989257812 -33 526 -48.0107421875 526 -66.5 c 4
 526 -84.9892578125 510.989257812 -100 492.5 -100 c 6
 58.5 -100 l 6
EndSplineSet
EndChar

StartChar: NameMe.17
Encoding: 17 -1 17
Width: 550
Flags: HW
LayerCount: 2
Fore
SplineSet
525 -67 m 6
 525 -85.33984375 510.111328125 -100.477539062 491.4765625 -100.477539062 c 6
 58.5 -100.5 l 6
 40.0107421875 -100.5 25 -85.4892578125 25 -67 c 4
 25 -48.5107421875 40.0107421875 -33.5 58.5 -33.5 c 6
 458 -33.5 l 5
 458 367 l 6
 458 385.489257812 473.010742188 400.5 491.5 400.5 c 4
 509.989257812 400.5 525 385.489257812 525 367 c 6
 525 -67 l 6
EndSplineSet
EndChar

StartChar: NameMe.18
Encoding: 18 -1 18
Width: 551
Flags: HW
LayerCount: 2
Fore
SplineSet
492.5 400 m 6
 510.83984375 400 525.977539062 385.111328125 525.977539062 366.4765625 c 6
 526 -66.5 l 6
 526 -84.9892578125 510.989257812 -100 492.5 -100 c 4
 474.010742188 -100 459 -84.9892578125 459 -66.5 c 6
 459 333 l 5
 58.5 333 l 6
 40.0107421875 333 25 348.010742188 25 366.5 c 4
 25 384.989257812 40.0107421875 400 58.5 400 c 6
 492.5 400 l 6
EndSplineSet
EndChar

StartChar: NameMe.19
Encoding: 19 -1 19
Width: 550
Flags: HW
LayerCount: 2
Fore
SplineSet
92 42 m 0
 92 23.5107421875 76.9892578125 8.5 58.5 8.5 c 0
 40.0107421875 8.5 25 23.5107421875 25 42 c 0
 25 181.638671875 137.3828125 291.5 275.5 291.5 c 0
 412.736328125 291.5 525 181.568359375 525 42 c 0
 525 23.5107421875 509.989257812 8.5 491.5 8.5 c 0
 473.010742188 8.5 458 23.5107421875 458 42 c 0
 458 144.431640625 376.263671875 224.5 275.5 224.5 c 0
 173.6171875 224.5 92 144.361328125 92 42 c 0
EndSplineSet
EndChar

StartChar: NameMe.20
Encoding: 20 -1 20
Width: 550
Flags: HW
LayerCount: 2
Fore
SplineSet
128.572265625 336.541992188 m 0
 147.061523438 336.541992188 162.073242188 321.53125 162.073242188 303.041015625 c 0
 162.073242188 290.502929688 155.169921875 279.564453125 144.887695312 273.78125 c 0
 144.557617188 273.215820312 124.310546875 253.546875 108.579101562 219.24609375 c 0
 98.8603515625 198.057617188 92 173.661132812 92 150 c 0
 92 47.4912109375 173.826171875 -33.5 275.5 -33.5 c 0
 376.053710938 -33.5 458 47.4208984375 458 150 c 0
 458 183.19921875 452.354492188 207.2109375 445.200195312 225.311523438 c 0
 436.21875 248.032226562 424.963867188 261.671875 415.102539062 273.6484375 c 0
 406.00390625 284.69921875 401.000976562 290.776367188 401.000976562 302.997070312 c 0
 401.000976562 321.484375 416.009765625 336.493164062 434.497070312 336.493164062 c 0
 445.458007812 336.493164062 455.197265625 331.216796875 461.31640625 323.072265625 c 0
 462.427734375 321.588867188 464.3828125 319.1875 466.84765625 316.192382812 c 0
 487.28125 291.375976562 525 244.431640625 525 150 c 0
 525 10.5791015625 412.946289062 -100.5 275.5 -100.5 c 0
 137.173828125 -100.5 25 10.5087890625 25 150 c 0
 25 201.079101562 44.443359375 245.967773438 64.1708984375 278.033203125 c 0
 71.802734375 290.4375 91.9208984375 320.861328125 112.112304688 332.21875 c 0
 117.029296875 334.987304688 122.620117188 336.541992188 128.572265625 336.541992188 c 0
EndSplineSet
EndChar

StartChar: NameMe.21
Encoding: 21 -1 21
Width: 276
Flags: HW
LayerCount: 2
Fore
SplineSet
78.8896484375 62.546875 m 6
 72.8125 57.8837890625 65.6416015625 55.6279296875 58.525390625 55.6279296875 c 0
 48.462890625 55.6279296875 38.5107421875 60.138671875 31.91796875 68.73046875 c 4
 27.255859375 74.806640625 25 81.9775390625 25 89.0927734375 c 0
 25 99.1552734375 29.509765625 109.108398438 38.1025390625 115.701171875 c 6
 196.772460938 237.453125 l 6
 202.848632812 242.116210938 210.020507812 244.372070312 217.13671875 244.372070312 c 0
 227.198242188 244.372070312 237.151367188 239.861328125 243.744140625 231.26953125 c 4
 248.40625 225.193359375 250.662109375 218.022460938 250.662109375 210.907226562 c 0
 250.662109375 200.844726562 246.151367188 190.891601562 237.559570312 184.298828125 c 6
 78.8896484375 62.546875 l 6
EndSplineSet
EndChar

StartChar: NameMe.22
Encoding: 22 -1 22
Width: 276
Flags: HW
LayerCount: 2
Fore
SplineSet
38.1025390625 184.298828125 m 2
 29.509765625 190.891601562 25 200.844726562 25 210.907226562 c 0
 25 218.022460938 27.255859375 225.193359375 31.91796875 231.26953125 c 0
 38.5107421875 239.861328125 48.462890625 244.372070312 58.525390625 244.372070312 c 0
 65.6416015625 244.372070312 72.8125 242.116210938 78.8896484375 237.453125 c 2
 237.559570312 115.701171875 l 2
 246.151367188 109.108398438 250.662109375 99.1552734375 250.662109375 89.0927734375 c 0
 250.662109375 81.9775390625 248.40625 74.806640625 243.744140625 68.73046875 c 0
 237.151367188 60.138671875 227.198242188 55.6279296875 217.13671875 55.6279296875 c 0
 210.020507812 55.6279296875 202.848632812 57.8837890625 196.772460938 62.546875 c 2
 38.1025390625 184.298828125 l 2
EndSplineSet
EndChar

StartChar: NameMe.23
Encoding: 23 -1 23
Width: 239
Flags: HW
LayerCount: 2
Fore
SplineSet
206.825195312 91.05859375 m 6
 211.487304688 84.9814453125 213.743164062 77.810546875 213.743164062 70.6943359375 c 0
 213.743164062 60.6318359375 209.233398438 50.6796875 200.641601562 44.0869140625 c 4
 194.565429688 39.4248046875 187.39453125 37.1689453125 180.278320312 37.1689453125 c 0
 170.216796875 37.1689453125 160.263671875 41.6787109375 153.670898438 50.271484375 c 6
 31.9189453125 208.94140625 l 6
 27.255859375 215.018554688 25 222.189453125 25 229.305664062 c 0
 25 239.368164062 29.509765625 249.3203125 38.1025390625 255.913085938 c 4
 44.1787109375 260.575195312 51.3486328125 262.831054688 58.46484375 262.831054688 c 0
 68.52734375 262.831054688 78.4794921875 258.321289062 85.0732421875 249.728515625 c 6
 206.825195312 91.05859375 l 6
EndSplineSet
EndChar

StartChar: NameMe.24
Encoding: 24 -1 24
Width: 239
Flags: HW
LayerCount: 2
Fore
SplineSet
85.0732421875 50.271484375 m 2
 78.4794921875 41.6787109375 68.52734375 37.1689453125 58.46484375 37.1689453125 c 0
 51.3486328125 37.1689453125 44.1787109375 39.4248046875 38.1025390625 44.0869140625 c 0
 29.509765625 50.6796875 25 60.6318359375 25 70.6943359375 c 0
 25 77.810546875 27.255859375 84.9814453125 31.9189453125 91.05859375 c 2
 153.670898438 249.728515625 l 2
 160.263671875 258.321289062 170.216796875 262.831054688 180.278320312 262.831054688 c 0
 187.39453125 262.831054688 194.565429688 260.575195312 200.641601562 255.913085938 c 0
 209.233398438 249.3203125 213.743164062 239.368164062 213.743164062 229.305664062 c 0
 213.743164062 222.189453125 211.487304688 215.018554688 206.825195312 208.94140625 c 2
 85.0732421875 50.271484375 l 2
EndSplineSet
EndChar

StartChar: NameMe.25
Encoding: 25 -1 25
Width: 717
Flags: HW
LayerCount: 2
Fore
SplineSet
58.5 -8.5 m 6
 40.0107421875 -8.5 25 6.5107421875 25 25 c 4
 25 43.4892578125 40.0107421875 58.5 58.5 58.5 c 6
 658.5 58.5 l 6
 676.989257812 58.5 692 43.4892578125 692 25 c 4
 692 6.5107421875 676.989257812 -8.5 658.5 -8.5 c 6
 58.5 -8.5 l 6
58.5 241.5 m 2
 40.0107421875 241.5 25 256.510742188 25 275 c 0
 25 293.489257812 40.0107421875 308.5 58.5 308.5 c 2
 658.5 308.5 l 2
 676.989257812 308.5 692 293.489257812 692 275 c 0
 692 256.510742188 676.989257812 241.5 658.5 241.5 c 2
 58.5 241.5 l 2
EndSplineSet
EndChar

StartChar: NameMe.26
Encoding: 26 -1 26
Width: 367
Flags: HW
LayerCount: 2
Fore
SplineSet
342 -150 m 6
 342 -168.489257812 326.989257812 -183.5 308.5 -183.5 c 4
 290.010742188 -183.5 275 -168.489257812 275 -150 c 6
 275 450 l 6
 275 468.489257812 290.010742188 483.5 308.5 483.5 c 4
 326.989257812 483.5 342 468.489257812 342 450 c 6
 342 -150 l 6
92 -150 m 2
 92 -168.489257812 76.9892578125 -183.5 58.5 -183.5 c 0
 40.0107421875 -183.5 25 -168.489257812 25 -150 c 2
 25 450 l 2
 25 468.489257812 40.0107421875 483.5 58.5 483.5 c 0
 76.9892578125 483.5 92 468.489257812 92 450 c 2
 92 -150 l 2
EndSplineSet
EndChar

StartChar: NameMe.27
Encoding: 27 -1 27
Width: 718
Flags: HW
LayerCount: 2
Fore
SplineSet
258.958007812 -174.208007812 m 6
 245.883789062 -187.282226562 224.65625 -187.282226562 211.58203125 -174.208007812 c 4
 198.5078125 -161.134765625 198.5078125 -139.90625 211.58203125 -126.83203125 c 6
 635.845703125 297.431640625 l 6
 648.919921875 310.505859375 670.1484375 310.505859375 683.221679688 297.431640625 c 4
 696.295898438 284.357421875 696.295898438 263.129882812 683.221679688 250.055664062 c 6
 258.958007812 -174.208007812 l 6
82.181640625 2.568359375 m 2
 69.107421875 -10.505859375 47.87890625 -10.505859375 34.8056640625 2.568359375 c 0
 21.7314453125 15.642578125 21.7314453125 36.8701171875 34.8056640625 49.9443359375 c 2
 459.069335938 474.208007812 l 2
 472.143554688 487.282226562 493.37109375 487.282226562 506.4453125 474.208007812 c 0
 519.51953125 461.134765625 519.51953125 439.90625 506.4453125 426.83203125 c 2
 82.181640625 2.568359375 l 2
EndSplineSet
EndChar

StartChar: NameMe.28
Encoding: 28 -1 28
Width: 718
Flags: HW
LayerCount: 2
Fore
SplineSet
34.8056640625 250.055664062 m 6
 21.7314453125 263.129882812 21.7314453125 284.357421875 34.8056640625 297.431640625 c 4
 47.87890625 310.505859375 69.107421875 310.505859375 82.181640625 297.431640625 c 6
 506.4453125 -126.83203125 l 6
 519.51953125 -139.90625 519.51953125 -161.134765625 506.4453125 -174.208007812 c 4
 493.37109375 -187.282226562 472.143554688 -187.282226562 459.069335938 -174.208007812 c 6
 34.8056640625 250.055664062 l 6
211.58203125 426.83203125 m 2
 198.5078125 439.90625 198.5078125 461.134765625 211.58203125 474.208007812 c 0
 224.65625 487.282226562 245.883789062 487.282226562 258.958007812 474.208007812 c 2
 683.221679688 49.9443359375 l 2
 696.295898438 36.8701171875 696.295898438 15.642578125 683.221679688 2.568359375 c 0
 670.1484375 -10.505859375 648.919921875 -10.505859375 635.845703125 2.568359375 c 2
 211.58203125 426.83203125 l 2
EndSplineSet
EndChar

StartChar: NameMe.29
Encoding: 29 -1 29
Width: 717
Flags: HW
LayerCount: 2
Fore
SplineSet
58.5 41.5 m 6
 40.0107421875 41.5 25 56.5107421875 25 75 c 4
 25 93.4892578125 40.0107421875 108.5 58.5 108.5 c 6
 658.5 108.5 l 6
 676.989257812 108.5 692 93.4892578125 692 75 c 4
 692 56.5107421875 676.989257812 41.5 658.5 41.5 c 6
 58.5 41.5 l 6
58.5 191.5 m 2
 40.0107421875 191.5 25 206.510742188 25 225 c 0
 25 243.489257812 40.0107421875 258.5 58.5 258.5 c 2
 658.5 258.5 l 2
 676.989257812 258.5 692 243.489257812 692 225 c 0
 692 206.510742188 676.989257812 191.5 658.5 191.5 c 2
 58.5 191.5 l 2
EndSplineSet
EndChar

StartChar: NameMe.30
Encoding: 30 -1 30
Width: 267
Flags: HW
LayerCount: 2
Fore
SplineSet
242 -150 m 6
 242 -168.489257812 226.989257812 -183.5 208.5 -183.5 c 4
 190.010742188 -183.5 175 -168.489257812 175 -150 c 6
 175 450 l 6
 175 468.489257812 190.010742188 483.5 208.5 483.5 c 4
 226.989257812 483.5 242 468.489257812 242 450 c 6
 242 -150 l 6
92 -150 m 2
 92 -168.489257812 76.9892578125 -183.5 58.5 -183.5 c 0
 40.0107421875 -183.5 25 -168.489257812 25 -150 c 2
 25 450 l 2
 25 468.489257812 40.0107421875 483.5 58.5 483.5 c 0
 76.9892578125 483.5 92 468.489257812 92 450 c 2
 92 -150 l 2
EndSplineSet
EndChar

StartChar: NameMe.31
Encoding: 31 -1 31
Width: 647
Flags: HW
LayerCount: 2
Fore
SplineSet
188.247070312 -138.853515625 m 6
 175.173828125 -151.926757812 153.9453125 -151.926757812 140.87109375 -138.853515625 c 4
 127.796875 -125.779296875 127.796875 -104.55078125 140.87109375 -91.4765625 c 6
 565.134765625 332.787109375 l 6
 578.208984375 345.861328125 599.4375 345.861328125 612.51171875 332.787109375 c 4
 625.584960938 319.712890625 625.584960938 298.484375 612.51171875 285.411132812 c 6
 188.247070312 -138.853515625 l 6
82.181640625 -32.787109375 m 2
 69.107421875 -45.861328125 47.87890625 -45.861328125 34.8046875 -32.787109375 c 0
 21.7314453125 -19.712890625 21.7314453125 1.515625 34.8046875 14.5888671875 c 2
 459.069335938 438.853515625 l 2
 472.142578125 451.926757812 493.37109375 451.926757812 506.4453125 438.853515625 c 0
 519.51953125 425.779296875 519.51953125 404.55078125 506.4453125 391.4765625 c 2
 82.181640625 -32.787109375 l 2
EndSplineSet
EndChar

StartChar: NameMe.32
Encoding: 32 -1 32
Width: 647
Flags: HW
LayerCount: 2
Fore
SplineSet
34.8046875 285.411132812 m 6
 21.7314453125 298.484375 21.7314453125 319.712890625 34.8046875 332.787109375 c 4
 47.87890625 345.861328125 69.107421875 345.861328125 82.181640625 332.787109375 c 6
 506.4453125 -91.4765625 l 6
 519.51953125 -104.55078125 519.51953125 -125.779296875 506.4453125 -138.853515625 c 4
 493.37109375 -151.926757812 472.142578125 -151.926757812 459.069335938 -138.853515625 c 6
 34.8046875 285.411132812 l 6
140.87109375 391.4765625 m 2
 127.796875 404.55078125 127.796875 425.779296875 140.87109375 438.853515625 c 0
 153.9453125 451.926757812 175.173828125 451.926757812 188.247070312 438.853515625 c 2
 612.51171875 14.5888671875 l 2
 625.584960938 1.515625 625.584960938 -19.712890625 612.51171875 -32.787109375 c 0
 599.4375 -45.861328125 578.208984375 -45.861328125 565.134765625 -32.787109375 c 2
 140.87109375 391.4765625 l 2
EndSplineSet
EndChar

StartChar: NameMe.33
Encoding: 33 -1 33
Width: 355
Flags: HW
LayerCount: 2
Fore
SplineSet
296.540039062 366.528320312 m 0
 315.02734375 366.528320312 330.036132812 351.51953125 330.036132812 333.033203125 c 0
 330.036132812 322.216796875 324.897460938 312.590820312 316.883789062 306.428710938 c 0
 113.44140625 150 113.44140625 150 113.44140625 150 c 1
 113.44140625 150 316.883789062 -6.4287109375 316.930664062 -6.46484375 c 0
 324.897460938 -12.5908203125 330.036132812 -22.216796875 330.036132812 -33.033203125 c 0
 330.036132812 -51.51953125 315.02734375 -66.5283203125 296.540039062 -66.5283203125 c 0
 288.870117188 -66.5283203125 281.798828125 -63.9453125 276.096679688 -59.5712890625 c 2
 38.09375 123.400390625 l 2
 34.4765625 126.180664062 25 134.905273438 25 149.96484375 c 0
 25 160.067382812 29.5322265625 169.986328125 38.0966796875 176.571289062 c 2
 276.096679688 359.571289062 l 2
 281.798828125 363.9453125 288.870117188 366.528320312 296.540039062 366.528320312 c 0
EndSplineSet
EndChar

StartChar: NameMe.34
Encoding: 34 -1 34
Width: 483
Flags: HW
LayerCount: 2
Fore
SplineSet
25 269.022460938 m 0
 25 287.508789062 40.0087890625 302.517578125 58.49609375 302.517578125 c 0
 69.3125 302.517578125 78.9384765625 297.379882812 85.1005859375 289.365234375 c 0
 241.529296875 85.9228515625 241.529296875 85.9228515625 241.529296875 85.9228515625 c 1
 241.529296875 85.9228515625 397.95703125 289.365234375 397.994140625 289.413085938 c 0
 404.119140625 297.379882812 413.745117188 302.517578125 424.561523438 302.517578125 c 0
 443.048828125 302.517578125 458.057617188 287.508789062 458.057617188 269.022460938 c 0
 458.057617188 261.352539062 455.473632812 254.28125 451.100585938 248.579101562 c 2
 268.12890625 10.5751953125 l 2
 265.34765625 6.958984375 256.624023438 -2.517578125 241.563476562 -2.517578125 c 0
 231.4609375 -2.517578125 221.541992188 2.0146484375 214.95703125 10.5791015625 c 2
 31.95703125 248.579101562 l 2
 27.583984375 254.28125 25 261.352539062 25 269.022460938 c 0
EndSplineSet
EndChar

StartChar: NameMe.35
Encoding: 35 -1 35
Width: 355
Flags: HW
LayerCount: 2
Fore
SplineSet
58.49609375 -66.5283203125 m 0
 40.0087890625 -66.5283203125 25 -51.51953125 25 -33.033203125 c 0
 25 -22.216796875 30.138671875 -12.5908203125 38.15234375 -6.4287109375 c 0
 241.594726562 150 241.594726562 150 241.594726562 150 c 1
 241.594726562 150 38.15234375 306.428710938 38.10546875 306.46484375 c 0
 30.138671875 312.590820312 25 322.216796875 25 333.033203125 c 0
 25 351.51953125 40.0087890625 366.528320312 58.49609375 366.528320312 c 0
 66.166015625 366.528320312 73.2373046875 363.9453125 78.939453125 359.571289062 c 2
 316.942382812 176.599609375 l 2
 320.559570312 173.819335938 330.036132812 165.094726562 330.036132812 150.03515625 c 0
 330.036132812 139.932617188 325.50390625 130.013671875 316.939453125 123.428710938 c 2
 78.939453125 -59.5712890625 l 2
 73.2373046875 -63.9453125 66.166015625 -66.5283203125 58.49609375 -66.5283203125 c 0
EndSplineSet
EndChar

StartChar: NameMe.36
Encoding: 36 -1 36
Width: 483
Flags: HW
LayerCount: 2
Fore
SplineSet
458.057617188 30.9775390625 m 0
 458.057617188 12.4912109375 443.048828125 -2.517578125 424.561523438 -2.517578125 c 0
 413.745117188 -2.517578125 404.119140625 2.6201171875 397.95703125 10.634765625 c 0
 241.529296875 214.077148438 241.529296875 214.077148438 241.529296875 214.077148438 c 1
 241.529296875 214.077148438 85.1005859375 10.634765625 85.064453125 10.5869140625 c 0
 78.9384765625 2.6201171875 69.3125 -2.517578125 58.49609375 -2.517578125 c 0
 40.0087890625 -2.517578125 25 12.4912109375 25 30.9775390625 c 0
 25 38.6474609375 27.583984375 45.71875 31.95703125 51.4208984375 c 2
 214.928710938 289.424804688 l 2
 217.709960938 293.041015625 226.43359375 302.517578125 241.494140625 302.517578125 c 0
 251.596679688 302.517578125 261.515625 297.985351562 268.100585938 289.420898438 c 2
 451.100585938 51.4208984375 l 2
 455.473632812 45.71875 458.057617188 38.6474609375 458.057617188 30.9775390625 c 0
EndSplineSet
EndChar

StartChar: NameMe.37
Encoding: 37 -1 37
Width: 415
Flags: HW
LayerCount: 2
Fore
SplineSet
73.7138671875 387.26953125 m 0
 80.25 393.806640625 88.8251953125 397.07421875 97.3994140625 397.07421875 c 0
 105.973632812 397.07421875 114.547851562 393.806640625 121.083984375 387.270507812 c 0
 127.615234375 380.739257812 130.8828125 372.170898438 130.8828125 363.565429688 c 0
 130.8828125 361.3515625 130.8828125 361.3515625 97.3525390625 104.69140625 c 1
 97.3525390625 104.69140625 351.8203125 137.934570312 351.87890625 137.942382812 c 0
 353.328125 138.131835938 354.787109375 138.2265625 356.247070312 138.2265625 c 0
 364.821289062 138.2265625 373.396484375 134.958984375 379.932617188 128.422851562 c 0
 386.467773438 121.88671875 389.735351562 113.3125 389.735351562 104.73828125 c 0
 389.735351562 96.1640625 386.467773438 87.5888671875 379.931640625 81.052734375 c 0
 374.5078125 75.62890625 367.681640625 72.455078125 360.556640625 71.5166015625 c 2
 62.8828125 32.603515625 l 2
 61.8623046875 32.4697265625 60.4189453125 32.33984375 58.6728515625 32.33984375 c 0
 52.669921875 32.33984375 43.087890625 33.8798828125 34.83984375 42.12890625 c 0
 27.6962890625 49.2724609375 23.8876953125 59.490234375 25.287109375 70.203125 c 2
 64.177734375 367.89453125 l 2
 65.1171875 375.01953125 68.291015625 381.846679688 73.7138671875 387.26953125 c 0
EndSplineSet
EndChar

StartChar: NameMe.38
Encoding: 38 -1 38
Width: 415
Flags: HW
LayerCount: 2
Fore
SplineSet
34.8037109375 81.052734375 m 0
 28.267578125 87.587890625 25 96.162109375 25 104.736328125 c 0
 25 113.311523438 28.267578125 121.885742188 34.8046875 128.422851562 c 0
 41.3349609375 134.954101562 49.9013671875 138.221679688 58.5068359375 138.221679688 c 0
 59.978515625 138.221679688 61.4521484375 138.125976562 62.9169921875 137.934570312 c 0
 317.384765625 104.69140625 317.384765625 104.69140625 317.384765625 104.69140625 c 1
 317.384765625 104.69140625 284.139648438 359.157226562 284.1328125 359.217773438 c 0
 282.830078125 369.181640625 286.00390625 379.62109375 293.65234375 387.26953125 c 0
 300.188476562 393.806640625 308.762695312 397.07421875 317.337890625 397.07421875 c 0
 325.912109375 397.07421875 334.486328125 393.806640625 341.022460938 387.270507812 c 0
 346.4453125 381.846679688 349.618164062 375.01953125 350.55859375 367.895507812 c 2
 389.471679688 70.220703125 l 2
 390.0625 65.697265625 390.594726562 52.828125 379.9453125 42.1787109375 c 0
 373.78515625 36.01953125 365.33984375 32.337890625 356.262695312 32.337890625 c 0
 354.8125 32.337890625 353.346679688 32.4326171875 351.87109375 32.625 c 2
 54.1787109375 71.5166015625 l 2
 47.0546875 72.4560546875 40.2275390625 75.62890625 34.8037109375 81.052734375 c 0
EndSplineSet
EndChar

StartChar: NameMe.39
Encoding: 39 -1 39
Width: 415
Flags: HW
LayerCount: 2
Fore
SplineSet
341.022460938 -87.26953125 m 0
 334.485351562 -93.806640625 325.91015625 -97.07421875 317.3359375 -97.07421875 c 0
 308.76171875 -97.07421875 300.1875 -93.806640625 293.65234375 -87.2705078125 c 0
 287.120117188 -80.7392578125 283.852539062 -72.1708984375 283.852539062 -63.5654296875 c 0
 283.852539062 -61.3515625 283.852539062 -61.3515625 317.383789062 195.30859375 c 1
 317.383789062 195.30859375 62.916015625 162.065429688 62.857421875 162.057617188 c 0
 61.4072265625 161.868164062 59.9482421875 161.7734375 58.48828125 161.7734375 c 0
 49.9140625 161.7734375 41.3388671875 165.041015625 34.8037109375 171.577148438 c 0
 28.267578125 178.11328125 25 186.6875 25 195.26171875 c 0
 25 203.8359375 28.267578125 212.411132812 34.8046875 218.947265625 c 0
 40.228515625 224.37109375 47.0546875 227.544921875 54.1796875 228.483398438 c 2
 351.853515625 267.396484375 l 2
 352.873046875 267.530273438 354.31640625 267.66015625 356.063476562 267.66015625 c 0
 362.06640625 267.66015625 371.647460938 266.120117188 379.896484375 257.87109375 c 0
 387.040039062 250.727539062 390.848632812 240.509765625 389.44921875 229.796875 c 2
 350.55859375 -67.89453125 l 2
 349.619140625 -75.01953125 346.4453125 -81.8466796875 341.022460938 -87.26953125 c 0
EndSplineSet
EndChar

StartChar: NameMe.40
Encoding: 40 -1 40
Width: 415
Flags: HW
LayerCount: 2
Fore
SplineSet
379.931640625 218.947265625 m 0
 386.466796875 212.412109375 389.734375 203.837890625 389.734375 195.263671875 c 0
 389.734375 186.688476562 386.466796875 178.114257812 379.930664062 171.577148438 c 0
 373.399414062 165.045898438 364.833007812 161.778320312 356.227539062 161.778320312 c 0
 354.755859375 161.778320312 353.282226562 161.874023438 351.818359375 162.065429688 c 0
 97.3515625 195.309570312 97.3515625 195.309570312 97.3515625 195.309570312 c 1
 97.3515625 195.309570312 130.595703125 -59.1572265625 130.603515625 -59.216796875 c 0
 131.905273438 -69.181640625 128.731445312 -79.62109375 121.083007812 -87.26953125 c 0
 114.545898438 -93.806640625 105.971679688 -97.07421875 97.3974609375 -97.07421875 c 0
 88.822265625 -97.07421875 80.248046875 -93.806640625 73.712890625 -87.2705078125 c 0
 68.2900390625 -81.8466796875 65.1171875 -75.01953125 64.1767578125 -67.8955078125 c 2
 25.263671875 229.779296875 l 2
 24.6728515625 234.302734375 24.140625 247.171875 34.7900390625 257.821289062 c 0
 40.94921875 263.98046875 49.3955078125 267.662109375 58.47265625 267.662109375 c 0
 59.921875 267.662109375 61.388671875 267.567382812 62.8642578125 267.375 c 2
 360.556640625 228.483398438 l 2
 367.680664062 227.543945312 374.5078125 224.37109375 379.931640625 218.947265625 c 0
EndSplineSet
EndChar

StartChar: NameMe.41
Encoding: 41 -1 41
Width: 487
Flags: HW
LayerCount: 2
Fore
SplineSet
25 -28.40625 m 0
 25 -9.91796875 40.01171875 5.09375 58.501953125 5.09375 c 0
 71.0390625 5.09375 81.978515625 -1.80859375 87.76171875 -12.091796875 c 0
 88.326171875 -12.421875 107.99609375 -32.66796875 142.296875 -48.400390625 c 0
 163.484375 -58.119140625 187.880859375 -64.978515625 211.54296875 -64.978515625 c 0
 314.05078125 -64.978515625 395.04296875 16.84765625 395.04296875 118.521484375 c 0
 395.04296875 219.07421875 314.12109375 301.021484375 211.54296875 301.021484375 c 0
 178.34375 301.021484375 154.33203125 295.375 136.23046875 288.220703125 c 0
 113.509765625 279.240234375 99.87109375 267.984375 87.89453125 258.123046875 c 0
 76.84375 249.025390625 70.765625 244.021484375 58.544921875 244.021484375 c 0
 40.05859375 244.021484375 25.048828125 259.03125 25.048828125 277.517578125 c 0
 25.048828125 288.478515625 30.326171875 298.21875 38.470703125 304.337890625 c 0
 39.953125 305.44921875 42.35546875 307.404296875 45.349609375 309.869140625 c 0
 70.166015625 330.302734375 117.111328125 368.021484375 211.54296875 368.021484375 c 0
 350.962890625 368.021484375 462.04296875 255.966796875 462.04296875 118.521484375 c 0
 462.04296875 -19.8046875 351.033203125 -131.978515625 211.54296875 -131.978515625 c 0
 160.462890625 -131.978515625 115.57421875 -112.53515625 83.509765625 -92.80859375 c 0
 71.10546875 -85.17578125 40.681640625 -65.05859375 29.32421875 -44.8671875 c 0
 26.5546875 -39.94921875 25 -34.359375 25 -28.40625 c 0
EndSplineSet
EndChar

StartChar: NameMe.42
Encoding: 42 -1 42
Width: 487
Flags: HW
LayerCount: 2
Fore
SplineSet
462.04296875 264.44921875 m 0
 462.04296875 245.958984375 447.03125 230.947265625 428.541015625 230.947265625 c 0
 416.00390625 230.947265625 405.064453125 237.8515625 399.28125 248.1328125 c 0
 398.716796875 248.462890625 379.046875 268.7109375 344.74609375 284.44140625 c 0
 323.55859375 294.16015625 299.162109375 301.021484375 275.5 301.021484375 c 0
 172.9921875 301.021484375 92 219.1953125 92 117.521484375 c 0
 92 16.966796875 172.921875 -64.978515625 275.5 -64.978515625 c 0
 308.69921875 -64.978515625 332.7109375 -59.333984375 350.8125 -52.1796875 c 0
 373.533203125 -43.197265625 387.171875 -31.943359375 399.1484375 -22.08203125 c 0
 410.19921875 -12.982421875 416.27734375 -7.98046875 428.498046875 -7.98046875 c 0
 446.984375 -7.98046875 461.994140625 -22.98828125 461.994140625 -41.4765625 c 0
 461.994140625 -52.4375 456.716796875 -62.17578125 448.572265625 -68.294921875 c 0
 447.08984375 -69.40625 444.6875 -71.361328125 441.693359375 -73.826171875 c 0
 416.876953125 -94.259765625 369.931640625 -131.978515625 275.5 -131.978515625 c 0
 136.080078125 -131.978515625 25 -19.92578125 25 117.521484375 c 0
 25 255.84765625 136.009765625 368.021484375 275.5 368.021484375 c 0
 326.580078125 368.021484375 371.46875 348.578125 403.533203125 328.849609375 c 0
 415.9375 321.21875 446.361328125 301.099609375 457.71875 280.908203125 c 0
 460.48828125 275.9921875 462.04296875 270.400390625 462.04296875 264.44921875 c 0
EndSplineSet
EndChar

StartChar: NameMe.43
Encoding: 43 -1 43
Width: 900
Flags: HW
LayerCount: 2
Fore
SplineSet
58.5 116.5 m 2
 40.0107421875 116.5 25 131.510742188 25 150 c 0
 25 168.489257812 40.0107421875 183.5 58.5 183.5 c 2
 841.5 183.5 l 2
 859.989257812 183.5 875 168.489257812 875 150 c 0
 875 131.510742188 859.989257812 116.5 841.5 116.5 c 2
 58.5 116.5 l 2
EndSplineSet
EndChar

StartChar: NameMe.44
Encoding: 44 -1 44
Width: 900
Flags: HW
LayerCount: 2
Fore
SplineSet
58.5 40.5 m 6
 40.0107421875 40.5 25 55.5107421875 25 74 c 4
 25 92.4892578125 40.0107421875 107.5 58.5 107.5 c 6
 841.5 107.5 l 6
 859.989257812 107.5 875 92.4892578125 875 74 c 4
 875 55.5107421875 859.989257812 40.5 841.5 40.5 c 6
 58.5 40.5 l 6
58.5 191.5 m 2
 40.0107421875 191.5 25 206.510742188 25 225 c 0
 25 243.489257812 40.0107421875 258.5 58.5 258.5 c 2
 841.5 258.5 l 2
 859.989257812 258.5 875 243.489257812 875 225 c 0
 875 206.510742188 859.989257812 191.5 841.5 191.5 c 2
 58.5 191.5 l 2
EndSplineSet
EndChar

StartChar: NameMe.45
Encoding: 45 -1 45
Width: 550
Flags: HW
LayerCount: 2
Fore
SplineSet
458 150.5 m 6
 458 252.931640625 376.263671875 333 275.5 333 c 4
 173.6171875 333 92 252.861328125 92 150.5 c 6
 92 -66.5 l 6
 92 -84.9892578125 76.9892578125 -100 58.5 -100 c 4
 40.0107421875 -100 25 -84.9892578125 25 -66.5 c 6
 25 150.5 l 6
 25 290.138671875 137.3828125 400 275.5 400 c 4
 412.736328125 400 525 290.068359375 525 150.5 c 6
 525 -66.5 l 6
 525 -84.9892578125 509.989257812 -100 491.5 -100 c 4
 473.010742188 -100 458 -84.9892578125 458 -66.5 c 6
 458 150.5 l 6
EndSplineSet
EndChar

StartChar: NameMe.46
Encoding: 46 -1 46
Width: 550
Flags: HW
LayerCount: 2
Fore
SplineSet
275.5 -33 m 6
 377.931640625 -33 458 48.736328125 458 149.5 c 4
 458 251.3828125 377.861328125 333 275.5 333 c 6
 58.5 333 l 6
 40.0107421875 333 25 348.010742188 25 366.5 c 4
 25 384.989257812 40.0107421875 400 58.5 400 c 6
 275.5 400 l 6
 415.138671875 400 525 287.6171875 525 149.5 c 4
 525 12.263671875 415.068359375 -100 275.5 -100 c 6
 58.5 -100 l 6
 40.0107421875 -100 25 -84.9892578125 25 -66.5 c 4
 25 -48.0107421875 40.0107421875 -33 58.5 -33 c 6
 275.5 -33 l 6
EndSplineSet
EndChar

StartChar: NameMe.47
Encoding: 47 -1 47
Width: 550
Flags: HW
LayerCount: 2
Fore
SplineSet
274.5 333 m 6
 172.068359375 333 92 251.263671875 92 150.5 c 4
 92 48.6171875 172.138671875 -33 274.5 -33 c 6
 491.5 -33 l 6
 509.989257812 -33 525 -48.0107421875 525 -66.5 c 4
 525 -84.9892578125 509.989257812 -100 491.5 -100 c 6
 274.5 -100 l 6
 134.861328125 -100 25 12.3828125 25 150.5 c 4
 25 287.736328125 134.931640625 400 274.5 400 c 6
 491.5 400 l 6
 509.989257812 400 525 384.989257812 525 366.5 c 4
 525 348.010742188 509.989257812 333 491.5 333 c 6
 274.5 333 l 6
EndSplineSet
EndChar

StartChar: NameMe.48
Encoding: 48 -1 48
Width: 550
Flags: HW
LayerCount: 2
Fore
SplineSet
92 149.5 m 6
 92 47.068359375 173.736328125 -33 274.5 -33 c 4
 376.3828125 -33 458 47.138671875 458 149.5 c 6
 458 366.5 l 6
 458 384.989257812 473.010742188 400 491.5 400 c 4
 509.989257812 400 525 384.989257812 525 366.5 c 6
 525 149.5 l 6
 525 9.861328125 412.6171875 -100 274.5 -100 c 4
 137.263671875 -100 25 9.931640625 25 149.5 c 6
 25 366.5 l 6
 25 384.989257812 40.0107421875 400 58.5 400 c 4
 76.9892578125 400 92 384.989257812 92 366.5 c 6
 92 149.5 l 6
EndSplineSet
EndChar
